<svg width="205" height="179" viewBox="0 0 205 179" fill="none" xmlns="http://www.w3.org/2000/svg">
<path fill-rule="evenodd" clip-rule="evenodd" d="M91.68 60.7772C83.4129 60.8107 65.549 66.5946 65.235 69.8297C58.2814 77.6944 67.7295 77.3209 83.645 73.7482C94.704 76.2998 104.908 80.1648 116.158 79.8852C125.97 79.5679 135.803 79.6286 145.592 80.4527C157.841 80.0038 162.447 77.738 165.462 71.3592L165.229 71.4348C166.34 70.641 167.878 68.67 163.217 68.0294C161.874 67.6081 161.882 70.1556 149.586 68.7988C133.625 67.0375 117.584 62.2528 103.825 61.2817C99.5253 60.9783 95.438 60.762 91.68 60.7772Z" fill="url(#paint0_linear_1_805)" stroke="black" stroke-width="0.86783"/>
<path fill-rule="evenodd" clip-rule="evenodd" d="M99.7254 157.893C84.9264 159.506 67.953 172.184 74.6999 174.949C81.4467 177.714 101.027 178.867 104.727 175.641C106.628 173.984 110.029 169.833 110.43 165.937C110.832 169.832 114.223 173.984 116.124 175.641C119.824 178.867 139.414 177.714 146.16 174.949C152.906 172.184 135.934 159.506 121.135 157.893C113.514 158.671 110.773 161.381 110.43 164.491C110.087 161.381 107.346 158.671 99.7254 157.893Z" fill="url(#paint1_radial_1_805)" stroke="black" stroke-width="1.51991"/>
<path fill-rule="evenodd" clip-rule="evenodd" d="M99.7283 157.903C92.4648 158.695 84.6846 162.152 79.4348 165.795C87.3853 169.687 97.1062 172.086 107.644 172.362C108.994 170.481 110.203 168.175 110.433 165.947C110.66 168.154 111.841 170.44 113.174 172.311C123.538 171.847 133.058 169.331 140.805 165.367C135.575 161.883 128.118 158.664 121.137 157.903C113.517 158.681 110.776 161.392 110.433 164.501C110.089 161.392 107.348 158.681 99.7283 157.903Z" fill="black" fill-opacity="0.3137"/>
<path d="M160.647 112.583C160.647 126.891 155.279 140.614 145.722 150.731C136.166 160.849 123.204 166.533 109.689 166.533C96.1745 166.533 83.2132 160.849 73.6567 150.731C64.1002 140.614 58.7315 126.891 58.7315 112.583C58.7315 98.2748 64.1002 84.5524 73.6567 74.4348C83.2132 64.3172 96.1745 58.6332 109.689 58.6332C123.204 58.6332 136.166 64.3172 145.722 74.4348C155.279 84.5524 160.647 98.2748 160.647 112.583Z" fill="url(#paint2_radial_1_805)" stroke="black" stroke-width="1.51991" stroke-linecap="round"/>
<path d="M134.871 139.553C134.871 142.988 134.232 146.388 132.99 149.562C131.749 152.735 129.929 155.618 127.636 158.046C125.342 160.475 122.618 162.401 119.621 163.716C116.624 165.03 113.412 165.707 110.168 165.707C106.924 165.707 103.712 165.03 100.714 163.716C97.7173 162.401 94.9941 160.475 92.7002 158.046C90.4063 155.618 88.5867 152.735 87.3453 149.562C86.1038 146.388 85.4649 142.988 85.4649 139.553C85.4649 136.118 86.1038 132.718 87.3453 129.545C88.5867 126.371 90.4063 123.488 92.7002 121.06C94.9941 118.631 97.7173 116.705 100.714 115.39C103.712 114.076 106.924 113.4 110.168 113.4C113.412 113.4 116.624 114.076 119.621 115.39C122.618 116.705 125.342 118.631 127.636 121.06C129.929 123.488 131.749 126.371 132.99 129.545C134.232 132.718 134.871 136.118 134.871 139.553Z" fill="white" stroke="black" stroke-width="1.58338" stroke-linecap="round"/>
<path d="M158.635 97.5832C158.739 98.9859 158.799 100.399 158.799 101.829C158.799 131.608 135.962 155.776 107.834 155.776C84.6223 155.776 65.0316 139.317 58.8893 116.828C60.9388 144.623 82.9052 166.529 109.681 166.529C137.808 166.529 160.646 142.361 160.646 112.582C160.646 107.378 159.936 102.345 158.635 97.5832Z" fill="black" fill-opacity="0.3137"/>
<path d="M98.0001 77.0672C90.9414 77.0672 86.7281 83.6613 86.7281 92.2662C86.7281 100.871 92.4612 107.855 99.5201 107.855C103.668 107.855 107.349 105.44 109.686 101.705C112.023 105.443 115.712 107.855 119.862 107.855C126.921 107.855 132.654 100.871 132.654 92.2662C132.654 83.6613 129.059 77.0672 122 77.0672C117.5 81.0672 115.5 83.0672 110 88.5672C106 84.5672 107.5 86.0672 98.0001 77.0672Z" fill="white" stroke="black" stroke-width="1.5834" stroke-linecap="round"/>
<path d="M107.45 95.0172C107.446 95.9116 107.107 96.7676 106.508 97.3982C105.909 98.0289 105.098 98.3829 104.253 98.3829C103.409 98.3829 102.598 98.0289 101.999 97.3982C101.4 96.7676 101.061 95.9116 101.057 95.0172C101.054 94.5712 101.135 94.129 101.295 93.7162C101.454 93.3033 101.689 92.928 101.987 92.6117C102.284 92.2954 102.637 92.0444 103.026 91.8731C103.415 91.7018 103.832 91.6137 104.253 91.6137C104.675 91.6137 105.092 91.7018 105.481 91.8731C105.87 92.0444 106.223 92.2954 106.52 92.6117C106.817 92.928 107.052 93.3033 107.212 93.7162C107.372 94.129 107.453 94.5712 107.45 95.0172Z" fill="black" stroke="black" stroke-width="1.5834" stroke-linecap="round"/>
<path d="M118.89 95.0172C118.893 95.4633 118.812 95.9054 118.652 96.3182C118.492 96.7311 118.257 97.1064 117.96 97.4227C117.663 97.739 117.31 97.99 116.921 98.1613C116.532 98.3326 116.115 98.4207 115.693 98.4207C115.272 98.4207 114.855 98.3326 114.466 98.1613C114.077 97.99 113.724 97.739 113.427 97.4227C113.129 97.1064 112.894 96.7311 112.735 96.3182C112.575 95.9054 112.494 95.4633 112.497 95.0172C112.494 94.5712 112.575 94.129 112.735 93.7162C112.894 93.3033 113.129 92.928 113.427 92.6117C113.724 92.2954 114.077 92.0444 114.466 91.8731C114.855 91.7018 115.272 91.6137 115.693 91.6137C116.115 91.6137 116.532 91.7018 116.921 91.8731C117.31 92.0444 117.663 92.2954 117.96 92.6117C118.257 92.928 118.492 93.3033 118.652 93.7162C118.812 94.129 118.893 94.5712 118.89 95.0172Z" fill="black" stroke="black" stroke-width="1.5834" stroke-linecap="round"/>
<path d="M100.633 110.417C98.672 109.426 97.4325 110.481 96.4604 112.951C95.7002 117.791 93.6361 122.898 97.4494 126.365C97.1633 130.586 98.1099 132.803 100.293 133.567C100.037 139.517 101.703 138.669 103.106 142.252C102.498 147.128 103.066 144.295 103.693 147.352C104.912 154.242 105.614 153.912 106.66 155.109C107.655 158.168 109.194 157.339 110.276 156.191C111.307 152.286 112.487 151.474 112.285 149.33C114.745 147.39 113.943 145.655 114.819 144.632C117.126 139.186 117.337 138.566 117.477 135.514C122.022 126.309 120.337 127.524 120.259 124.789C121.252 122.104 122.441 117.53 121.125 116.691C124.061 114.134 122.425 114.496 121.434 112.921C120.513 110.965 120.377 111.892 117.385 111.066C111.755 113.344 108.24 112.093 100.633 110.417Z" fill="#D2D2D2" stroke="black"/>
<path d="M97.9429 115.327C96.4875 117.36 97.3455 119.856 98.3137 122.374C99.4068 132.635 99.6989 127.676 100.354 129.606C100.421 133.132 101.319 134.197 101.652 135.911C103.967 139.033 104.854 149.929 104.99 148.336C105.09 146.273 106.137 141.026 104.433 134.428C105.114 132.452 106.456 131.797 104.804 125.156C106.032 121.06 106.66 118.014 105.917 117.367C107.14 115.036 106.794 113.621 105.546 112.731C100.124 112.735 100.271 110.878 99.2513 110.477C98.2355 111.496 98.0547 111.144 97.9429 115.327Z" fill="#B9B9B9"/>
<path d="M108.513 114.037C107.635 117.628 106.52 121.339 108.513 123.495C107.454 127.533 111.208 133.837 107.215 141.854C107.262 147.337 106.623 154.878 108.513 154.835C109.427 153.654 108.865 149.252 110.231 137.677C110.664 134.649 112.785 136.546 111.431 129.496C112.936 126.874 114.726 124.404 113.891 116.633C112.686 114.297 111.632 111.586 108.513 114.037Z" fill="#A9A9A9"/>
<path d="M118.253 111.927C115.003 110.644 116.121 123.042 115.188 132.95C112.396 137.188 111.212 144.043 111.294 150.196C112.931 145.279 114.916 142.098 116.115 134.99C118.657 132.301 119.37 128.148 119.453 123.492C119.413 119.861 120.924 112.488 118.253 111.927Z" fill="#BABABA"/>
<path d="M96.3929 119.107C96.0548 121.015 96.867 123.123 97.7341 125.242C98.3786 130.698 99.2565 130.803 99.8806 132.436C101.885 133.026 100.624 135.961 101.231 137.244C103.555 139.575 105.603 148.688 105.139 147.377C104.844 145.562 104.459 140.877 102.574 135.252C102.562 133.463 103.076 132.772 101.208 127.105C101.098 123.412 100.884 120.691 100.432 120.19C100.613 118.042 100.754 116.726 100.027 116.058C97.5111 116.538 98.3342 111.863 97.7943 111.601C97.492 112.582 95.7508 115.436 96.3929 119.107Z" fill="#A9A9A9"/>
<path d="M103.963 116.527C103.631 119.951 103.151 123.509 104.615 125.32C104.064 129.262 102.441 135.812 105.023 142.514C105.432 147.607 105.531 154.68 106.774 154.456C107.296 153.269 108.003 149.531 105.639 138.745C105.716 135.888 108.039 135.972 106.66 129.55C107.472 126.965 108.776 125.562 107.69 118.418C106.734 116.363 105.852 113.945 103.963 116.527Z" fill="#A9A9A9"/>
<path d="M115.533 113.787C112.827 112.576 114.147 134.089 111.859 139.368C109.497 143.869 107.816 155.093 109.077 155.591C110.462 150.369 112.273 147.689 113.287 140.139C115.438 137.283 115.611 133.517 115.682 128.572C115.648 124.716 117.793 114.383 115.533 113.787Z" fill="#A2A2A2"/>
<path d="M99.9229 115.187C97.6183 116.431 91.9019 125.421 91.6371 118.505C92.0481 116.198 93.5141 112.22 96.4878 109.242C101.225 104.915 104.115 105.03 107.771 104.226C119.509 103.909 119.703 106.992 123.183 109.321C125.188 111.682 125.919 113.741 126.56 115.178C127.096 117.48 131.425 127.653 119.18 115.791C109.332 110.175 104.473 113.516 99.9229 115.187Z" fill="#A9A9A9" stroke="black"/>
<path d="M100.12 109.037C98.2704 110.755 96.7327 112.196 95.1294 115.156C92.8913 117.684 93.3272 117.375 92.5831 119.073C92.349 121.755 93.7299 118.911 95.9467 114.433C97.3413 113.33 98.5126 111.954 99.5761 110.851L101.635 110.021L118.185 108.93C119.964 110.674 121.184 112.919 122.804 114.187C124.203 116.78 126.002 120.34 127.158 120.872C126.517 118.925 126.774 118.005 125.101 114.88C124.271 112.865 122.49 111.157 120.694 110.058C117.999 107.884 118.438 107.953 116.963 107.457L104.174 107.546L100.12 109.037Z" fill="#8A8A8A"/>
<path d="M101.72 110.737C99.8704 112.455 98.3948 111.71 96.7916 114.67C94.5535 117.198 95.2378 116.702 94.4937 118.401C94.2596 121.082 95.8268 117.804 97.8573 114.816C99.2519 113.713 100.113 113.653 101.176 112.55L103.236 111.721L117.426 110.494C119.204 112.237 118.313 112.743 119.932 114.011C121.332 116.604 124.683 119.916 125.84 120.448C125.198 118.501 123.841 117.519 122.168 114.394C121.338 112.379 121.73 112.72 119.935 111.621C117.24 109.447 117.678 109.517 116.203 109.02L103.663 106.067L101.72 110.737Z" fill="#9A9A9A"/>
<path d="M99.4402 107.527C97.5904 109.245 96.388 110.289 94.7848 113.248C92.5467 115.777 93.3552 116.212 92.6111 117.911C92.377 120.592 93.3853 117.003 95.6021 112.525C96.9967 111.422 97.8327 110.443 98.8961 109.34L100.893 107.144L117.592 106.65C119.37 108.394 121.46 110.204 123.08 111.472C124.479 114.065 125.408 118.06 126.565 118.592C125.924 116.645 126.181 115.725 124.508 112.6C123.678 110.585 121.897 108.877 120.101 107.778C117.406 105.604 117.845 105.673 116.37 105.177L103.581 105.266L99.4402 107.527Z" fill="#8C8C8C"/>
<path fill-rule="evenodd" clip-rule="evenodd" d="M110.29 103.567C105.834 103.567 100.99 107.864 101.184 110.577C101.378 113.291 109.128 124.597 110.871 124.597C112.615 124.597 119.396 113.516 119.203 110.35C119.009 107.184 113.196 103.341 110.29 103.567Z" fill="black" fill-opacity="0.3137"/>
<path fill-rule="evenodd" clip-rule="evenodd" d="M109.59 100.847C105.134 100.847 100.29 104.744 100.484 107.206C100.678 109.667 108.428 119.924 110.171 119.924C111.915 119.924 118.696 109.873 118.503 107.001C118.309 104.129 112.497 100.642 109.59 100.847Z" fill="url(#paint3_linear_1_805)" stroke="black" stroke-width="1.5834"/>
<path fill-rule="evenodd" clip-rule="evenodd" d="M150.844 120.424C146.296 105.247 177.829 105.197 185.411 79.2018C186.813 74.3971 196.799 92.9122 183.523 112.365C170.613 131.282 155.945 133.984 150.844 120.424Z" fill="white" stroke="black" stroke-width="1.58338"/>
<path fill-rule="evenodd" clip-rule="evenodd" d="M150.844 120.424C146.296 105.247 185.219 110.552 185.411 79.2018C185.465 70.3798 196.799 92.9122 183.523 112.365C170.613 131.282 155.945 133.984 150.844 120.424Z" fill="url(#paint4_radial_1_805)" stroke="black" stroke-width="1.58338"/>
<path fill-rule="evenodd" clip-rule="evenodd" d="M89.9202 59.9272C89.9202 59.9272 103.849 18.3782 119.356 4.78316C125.81 -0.87524 133.766 1.10297 136.001 2.54107C142.469 6.70217 144.851 12.7011 148.357 17.7721C138.088 15.6242 141.534 11.4719 130.228 12.3295L136.941 65.6975C122.389 62.2057 106.148 61.0741 89.9202 59.9272Z" fill="url(#paint5_linear_1_805)" stroke="black" stroke-width="0.86783"/>
<path fill-rule="evenodd" clip-rule="evenodd" d="M88.657 60.4099L91.777 53.5398C99.1021 51.2581 114.866 51.3835 135.434 55.8844L137.44 69.627C121.819 65.7175 108.343 59.0034 88.657 60.4099Z" fill="url(#paint6_linear_1_805)"/>
<path fill-rule="evenodd" clip-rule="evenodd" d="M118.836 64.7163L118.988 52.3068L120.439 51.761C125.374 51.8337 129.394 52.4888 132.497 53.7261L134.253 65.6626L132.497 66.3176L118.836 64.7163ZM123.342 53.8966L123.87 61.4996L130.191 62.3233L129.691 59.8246L125.738 57.9327C124.802 56.7065 127.833 57.1366 129.05 56.9473L128.71 54.6624C126.92 53.958 125.131 53.821 123.342 53.8966Z" fill="#FFCD00" stroke="black" stroke-width="0.433916" stroke-linecap="round" stroke-linejoin="round"/>
<path fill-rule="evenodd" clip-rule="evenodd" d="M118.994 52.346L120.558 51.7687L120.861 64.0826L118.893 64.7319L118.994 52.346Z" fill="#BC9500" stroke="black" stroke-width="0.434003" stroke-linecap="round" stroke-linejoin="round"/>
<path fill-rule="evenodd" clip-rule="evenodd" d="M123.272 53.1855L123.295 53.8972C124.783 53.7903 126.523 53.8655 128.72 54.62L129.088 56.968L130.388 56.6861L129.81 54.1457C127.33 53.1699 125.286 53.0658 123.272 53.1855Z" fill="#BC9500" stroke="black" stroke-width="0.433916" stroke-linecap="round" stroke-linejoin="round"/>
<path fill-rule="evenodd" clip-rule="evenodd" d="M124.788 57.8026L129.664 59.5969L130.271 62.3815L131.565 62.5974L130.691 58.7595C128.75 58.4209 126.436 58.2151 124.788 57.8026Z" fill="#BC9500" stroke="black" stroke-width="0.433916" stroke-linecap="round" stroke-linejoin="round"/>
<path d="M130.32 12.5872C129.744 11.2049 129.062 9.80446 129.689 9.05556C130.506 8.07924 132.472 7.68106 131.574 10.2557" stroke="black" stroke-width="0.86783"/>
<path fill-rule="evenodd" clip-rule="evenodd" d="M91.43 60.7772C83.1629 60.8107 70.321 63.8902 66.53 67.6404C65.919 68.4179 63.2176 71.8074 62.8132 73.6399C62.9201 80.9642 72.2532 68.4182 79.6812 69.3058C109.747 70.8103 137.06 77.9834 165.007 71.4222C166.115 70.6151 167.587 68.6646 162.966 68.0294C161.624 67.608 161.631 70.1555 149.335 68.7988C133.374 67.0375 117.333 62.2527 103.574 61.2816C99.2745 60.9782 95.188 60.762 91.43 60.7772Z" fill="url(#paint7_linear_1_805)" stroke="black" stroke-width="0.86783"/>
<path opacity="0.8034" d="M121.71 61.3572C121.547 58.5042 121.182 52.5164 122.078 52.2364C122.843 53.239 123.308 67.4284 121.71 61.3572Z" fill="white"/>
<path fill-rule="evenodd" clip-rule="evenodd" d="M68.6 68.1072L68.9725 70.2336L66.9325 70.9207L69.056 71.2505L69.058 72.9504C69.2037 72.8485 69.2024 72.9454 69.5001 72.705L70.0468 71.4784L71.0049 71.7514C71.204 71.6167 71.3046 71.5672 71.4463 71.4518L70.566 70.5999L71.8136 68.8235L69.903 69.8351L68.6 68.1072ZM104.058 78.5832L104.12 78.7394C104.171 78.7484 104.227 78.7304 104.277 78.7394L104.058 78.5832ZM139.026 69.3374L138.214 71.3374L136.12 70.8374L137.745 72.2436L136.844 73.6854C137.022 73.6764 136.969 73.7578 137.349 73.712L138.463 72.9623L139.104 73.65C139.303 73.7453 139.473 73.758 139.64 73.644L139.37 72.4931L141.37 71.6494L139.213 71.4931L139.026 69.3374ZM152.672 69.4347L152.691 73.024C154.389 72.6203 153.803 73.0964 160.916 71.8163L161.391 71.3722L155.254 72.6983L153.484 69.4972H153.453C153.211 69.4847 152.933 69.4554 152.672 69.4347ZM96.276 64.9269L95.776 69.4269L91.2448 69.6457C94.2464 70.019 94.6147 70.1719 99.4662 70.4542L102.338 68.2082L97.901 69.1457L96.276 64.9269ZM131.471 66.3298L132.526 67.4894L132.244 66.4789L131.471 66.3298ZM130.072 66.0649L129.464 67.1143L130.842 66.2091L130.072 66.0649ZM85.1504 61.9444L81.5566 65.4444L78.3066 63.0382C78.1585 63.0751 78.0163 63.1254 77.8691 63.1632L79.7441 66.9757L76.4291 69.1345C77.7503 69.0344 79.1708 68.5864 80.3496 68.9848C81.6544 68.9969 82.2407 69.0468 82.9942 69.0382L88.0254 69.0695L83.5566 66.7257L85.1504 61.9444ZM116.816 63.5585L115.276 64.7706L112.983 62.9048C112.25 62.7171 111.782 62.7071 110.483 62.5154L112.432 66.9269L106.088 71.0519L113.62 70.3019L114.169 72.1162C115.6 72.2304 115.632 72.2825 116.759 72.4144L117.182 70.2394L124.745 70.6457L118.213 66.8018L119.273 63.9452C117.995 63.6924 117.346 63.6692 116.816 63.5585ZM121.964 47.5835L119.089 51.5835L114.682 49.396L116.135 51.3804L117.235 52.8656C118.721 52.9198 118.879 53.4691 118.788 52.1792C119.329 51.8741 120.48 51.4417 121.349 51.5642L121.604 50.021L121.964 47.5835ZM96.6486 47.4995L94.8048 48.0933C94.5065 48.8416 94.2949 49.4591 94.0236 50.1558L96.6486 47.4995ZM105.82 52.0546L105.089 46.646L103.044 52.0731L105.82 52.0546ZM100.847 52.1455L96.9015 51.3334L98.141 52.3411L100.847 52.1455ZM113.027 38.5205L112.777 41.0517L110.246 41.1767L112.527 42.2392L111.871 44.6767L113.589 42.8017L115.714 44.1767L114.464 41.9892L116.433 40.3954L113.964 40.8954L113.027 38.5205ZM128.061 36.083L129.561 43.6142L122.373 46.3642L130.03 47.2392L130.286 52.7319C130.825 52.9146 130.909 52.9405 131.345 53.0757L133.592 47.9267L134.28 48.1142L133.498 41.7392L132.873 42.0829L128.061 36.083ZM104.888 36.1348L99.9504 37.2286L99.7317 36.6349C98.527 39.2943 97.4563 41.8048 96.4505 44.2287L99.2943 41.0099L103.575 43.6974L101.013 39.3536L104.888 36.1348ZM123.714 24.8958L123.995 29.7083L119.308 30.7708L123.933 31.9896L123.495 36.7708L126.089 32.7083L130.526 34.6145L127.464 30.8957L130.651 27.3019L126.151 29.0519L123.714 24.8958ZM108.992 18.8216C108.668 19.3556 108.342 19.9016 108.023 20.4466L107.867 24.4466L105.617 24.7279C105.237 25.4328 104.862 26.1408 104.492 26.8529L107.461 27.9467L106.054 35.2592L110.648 29.4154L117.179 32.9779L113.023 26.8217L118.461 21.7279L111.305 23.7591L108.992 18.8216ZM146.143 15.0198L144.268 15.9886L146.737 15.9573C146.542 15.6479 146.336 15.3326 146.143 15.0198ZM130.071 14.6566L128.04 14.9691L130.196 15.6878L130.071 14.6566ZM144.389 11.0648L138.733 12.8148C139.584 13.233 140.298 13.7671 141.108 14.3148L144.389 11.0648ZM125.151 9.67703L122.182 12.8959L118.526 10.4896L120.682 14.3022L117.245 17.0522L121.557 16.2084L123.12 20.3022L123.62 15.9272L127.995 15.7397L123.995 13.8959L125.151 9.67703ZM134.902 7.08624L134.871 11.8051C135.959 11.9153 136.834 12.1004 137.558 12.3676L134.902 7.08624ZM118.368 7.74829L115.462 9.40451L115.43 9.43579C114.85 10.1342 114.283 10.8967 113.712 11.6546L114.18 11.7171L114.337 15.0921L115.743 11.9983L119.024 12.8733L116.524 10.5921L118.368 7.74829ZM127.006 1.58029C125.417 1.82453 123.765 2.37648 122.131 3.26779L120.943 5.54901L124.631 2.9552L127.818 6.17401L126.474 1.86151L127.006 1.58029Z" fill="url(#paint8_linear_1_805)"/>
<path fill-rule="evenodd" clip-rule="evenodd" d="M76.6391 120.452C81.0959 105.247 49.5636 105.388 41.8246 79.4392C40.3941 74.6426 30.519 93.2179 43.9116 112.59C56.9361 131.429 71.6205 134.042 76.6391 120.452Z" fill="white" stroke="black" stroke-width="1.58338"/>
<path fill-rule="evenodd" clip-rule="evenodd" d="M76.6391 120.452C81.0959 105.247 19.7336 101.971 42.2962 80.2028C43.3339 79.9714 30.5193 93.2166 43.9123 112.589C56.9368 131.428 71.6205 134.042 76.6391 120.452Z" fill="url(#paint9_radial_1_805)" stroke="black" stroke-width="1.58338"/>
<path d="M36.6012 40.0874C40.1028 47.4696 36.9569 56.293 29.5746 59.7946C22.1924 63.2962 13.369 60.1503 9.8674 52.7681C6.36575 45.3858 9.5117 36.5624 16.894 33.0608C24.2762 29.5592 33.0995 32.7051 36.6012 40.0874Z" fill="url(#paint10_radial_1_805)"/>
<path d="M31.882 42.3259C34.1366 47.0791 32.1111 52.7602 27.3579 55.0147C22.6047 57.2694 16.9236 55.2438 14.669 50.4906C12.4144 45.7374 14.44 40.0563 19.1932 37.8017C23.9464 35.5471 29.6275 37.5727 31.882 42.3259Z" fill="url(#paint11_linear_1_805)"/>
<path d="M24.7992 39.7972C26.0296 41.5211 25.0433 44.3344 22.5964 46.0807C20.1496 47.8269 17.1684 47.8451 15.9381 46.1212C14.7078 44.3973 15.694 41.584 18.1409 39.8377C20.5878 38.0915 23.5689 38.0733 24.7992 39.7972Z" fill="url(#paint12_radial_1_805)"/>
<path d="M21.8602 54.3859C19.6944 52.5063 20.0234 48.5803 22.595 45.6171C25.1666 42.654 29.0072 41.7756 31.173 43.6552C33.3388 45.5348 33.0098 49.4608 30.4382 52.4239C27.8666 55.3871 24.026 56.2656 21.8602 54.3859Z" fill="url(#paint13_radial_1_805)"/>
<path d="M13.0808 32.1692C9.81943 33.8352 8.88067 36.2187 8.61494 38.8377C10.6882 44.301 9.05334 47.3563 5.40736 49.0779C4.86909 52.2095 5.40684 54.8387 9.24099 55.8963C14.613 56.0469 16.3415 61.2907 19.8749 64.0123C23.0505 64.9824 22.9848 62.9475 25.5383 61.1898C29.49 64.861 27.0309 65.3068 27.649 67.1908L29.7746 74.6016C30.4166 77.813 29.069 82.7656 35.6144 82.3754C37.3381 82.9006 39.2054 85.6099 41.0556 88.1601C44.0312 95.4008 45.6156 95.7526 47.7399 98.7484C45.7655 102.344 52.2381 107.69 53.5844 111.07C53.5959 114.261 52.473 113.655 54.5557 123.687C52.8267 126.889 52.1195 129.786 52.6039 132.324C53.8564 137.987 51.1495 137.099 57.6372 151.379C61.3283 156.576 62.2209 151.958 64.1531 150.986C66.059 149.239 68.8827 147.816 64.8167 143.941C62.8185 136.536 62.0089 133.813 60.9211 130.041C62.2548 126.726 64.2755 123.237 61.9267 120.845C63.8184 119.661 65.9136 116.417 60.3401 111.871C62.4701 105.924 61.0686 105.062 59.6967 104.139L54.4078 97.9286C53.4424 94.4745 51.7014 92.0013 50.2515 89.1662C48.8875 86.7233 45.1861 83.2498 40.5559 79.3518C39.557 76.2865 40.1543 72.3089 35.4466 71.3948C35.1764 66.997 36.1267 61.7171 32.5623 59.6848C34.6087 58.0633 37.9953 58.94 38.1151 53.6997C39.0132 52.0185 41.4821 54.4275 39.6377 45.5938C38.9355 43.6893 41.1721 43.8495 36.1214 38.8699C34.8874 37.3319 37.1307 34.1662 30.9275 34.9853C30.313 31.2042 27.2761 29.9333 23.5666 29.404C21.4894 27.2077 19.3324 29.5705 17.1847 30.7693C15.5235 31.1419 14.1685 31.6153 13.0814 32.1707L13.0808 32.1692ZM19.0104 38.7466C19.6419 38.4471 20.3956 37.3016 21.0493 37.1406C21.7029 36.9796 21.9249 36.8542 22.5831 36.8485C24.0265 36.8361 23.7668 37.2889 24.4101 37.386C25.0535 37.4832 25.4861 37.2015 26.097 37.4182C26.708 37.6348 27.3484 38.8947 27.9088 39.2246C28.4693 39.5545 29.1242 38.9799 29.6157 39.4168C30.1073 39.8536 30.2506 40.4889 30.6553 41.0262C31.0599 41.5635 31.3588 42.8267 31.6583 43.4582C32.2573 44.7212 32.4027 44.6638 32.4571 45.9779C32.5116 47.2919 32.5998 48.1857 32.1624 49.4062C31.7249 50.6266 30.6931 50.2029 29.8166 51.185C28.94 52.1672 28.423 54.1874 27.1601 54.7865C25.8971 55.3856 24.764 55.9889 23.451 56.0455C22.1379 56.102 22.2552 56.0389 21.036 55.6042C19.8168 55.1695 17.9616 54.3558 16.9804 53.4813C15.9992 52.6068 16.425 51.3104 15.8259 50.0474C15.2268 48.7845 13.872 48.0078 13.8154 46.6947C13.7589 45.3816 13.2829 46.5764 15.0705 43.0274C15.792 41.5949 15.2784 41.2887 16.1585 40.329C17.0469 39.3605 17.7473 39.3458 19.0104 38.7466Z" fill="#765700" stroke="black" stroke-width="0.787746"/>
<path opacity="0.3356" d="M13.0808 32.1692C9.81943 33.8352 8.88067 36.2187 8.61494 38.8377C10.6882 44.3009 9.05334 47.3563 5.40736 49.0779C4.86909 52.2095 5.40684 54.8387 9.24099 55.8963C14.613 56.0469 16.3415 61.2907 19.8749 64.0123C23.0505 64.9824 22.9848 62.9475 25.5383 61.1898C29.49 64.861 27.0309 65.3068 27.649 67.1908L29.7746 74.6016C30.4166 77.813 29.069 82.7656 35.6144 82.3754C37.3381 82.9006 39.2054 85.6099 41.0556 88.1601C44.0312 95.4008 45.6156 95.7526 47.7399 98.7484C45.7655 102.344 52.2381 107.69 53.5844 111.07C53.5959 114.261 52.473 113.655 54.5557 123.687C52.8267 126.889 52.1195 129.786 52.6039 132.324C53.8564 137.987 51.1495 137.099 57.6372 151.379C61.3283 156.576 62.2209 151.958 64.1531 150.986C66.059 149.239 68.8827 147.816 64.8167 143.941C62.8185 136.536 62.0089 133.813 60.9211 130.041C62.2548 126.726 64.2755 123.237 61.9267 120.845C63.8184 119.661 65.9136 116.417 60.3401 111.871C62.4701 105.924 61.0686 105.062 59.6967 104.139L54.4078 97.9286C53.4424 94.4745 51.7014 92.0013 50.2515 89.1662C48.8875 86.7233 45.1861 83.2498 40.5559 79.3518C39.557 76.2865 40.1543 72.3089 35.4466 71.3948C35.1764 66.997 36.1267 61.7171 32.5623 59.6848C34.6087 58.0633 37.9953 58.94 38.1151 53.6997C39.0132 52.0185 41.4821 54.4275 39.6377 45.5938C38.9355 43.6893 41.1721 43.8495 36.1214 38.8699C34.8874 37.3319 37.1307 34.1662 30.9275 34.9853C30.313 31.2042 27.2761 29.9333 23.5666 29.404C21.4894 27.2077 19.3324 29.5705 17.1847 30.7693C15.5235 31.1419 14.1685 31.6153 13.0814 32.1707L13.0808 32.1692ZM19.0104 38.7466C19.6419 38.4471 20.3956 37.3016 21.0493 37.1406C21.7029 36.9796 21.9249 36.8542 22.5831 36.8485C24.0265 36.8361 23.7668 37.2889 24.4101 37.386C25.0535 37.4832 25.4861 37.2015 26.097 37.4182C26.708 37.6348 27.3484 38.8947 27.9088 39.2246C28.4693 39.5545 29.1242 38.9799 29.6157 39.4168C30.1073 39.8536 30.2506 40.4889 30.6553 41.0262C31.0599 41.5635 31.3588 42.8267 31.6583 43.4582C32.2573 44.7212 32.4027 44.6638 32.4571 45.9779C32.5116 47.2919 32.5998 48.1857 32.1624 49.4062C31.7249 50.6266 30.6931 50.2029 29.8166 51.185C28.94 52.1672 28.423 54.1874 27.1601 54.7865C25.8971 55.3856 24.764 55.9889 23.451 56.0455C22.1379 56.102 22.2552 56.0389 21.036 55.6042C19.8168 55.1695 17.9616 54.3558 16.9804 53.4813C15.9992 52.6068 16.425 51.3104 15.8259 50.0474C15.2268 48.7845 13.872 48.0078 13.8154 46.6947C13.7589 45.3816 13.2829 46.5764 15.0705 43.0274C15.792 41.5949 15.2784 41.2887 16.1585 40.329C17.0469 39.3605 17.7473 39.3458 19.0104 38.7466Z" fill="url(#paint14_radial_1_805)"/>
<path d="M33.4839 61.159C31.2184 58.8388 29.8415 60.8186 30.9619 64.0433C30.7534 67.9312 32.3704 69.0161 33.5835 70.3993C34.3072 71.2527 34.2013 70.2523 34.9021 70.1437C35.7047 69.373 35.4082 65.4176 33.4839 61.159Z" fill="url(#paint15_radial_1_805)" stroke="#302112" stroke-width="0.654664" stroke-linecap="round" stroke-linejoin="round"/>
<path d="M30.0529 76.2218C30.3782 75.6524 29.8323 74.7724 31.3374 74.6235C32.7954 74.0924 33.6818 74.8337 34.4905 75.7477C36.2432 77.402 35.9409 78.6614 36.1415 80.0172C36.5614 81.4699 35.9447 81.6127 35.6801 82.201C32.5602 82.2469 29.8281 81.6572 30.0529 76.2218Z" fill="url(#paint16_radial_1_805)" stroke="#302112" stroke-width="0.708971" stroke-linecap="round" stroke-linejoin="round"/>
<path d="M43.7394 87.7432C43.9868 88.1857 44.4314 88.5342 45.0717 88.7905C46.5647 90.2055 47.7676 91.4313 47.88 91.9493C49.8918 95.7814 49.6581 95.8814 49.6136 96.7876C49.2308 98.9566 51.7783 100.272 53.3382 102.273" stroke="#302112" stroke-width="0.787746" stroke-linecap="round" stroke-linejoin="round"/>
<path d="M60.5143 111.914C59.6289 112.208 57.8949 111.996 57.8355 113.333C56.9313 115.169 57.0553 115.976 57.2745 116.688C57.6607 118.117 58.0639 118.741 58.4701 119.208C59.6345 121.029 61.0561 120.592 62.0283 120.834C64.794 118.562 64.6877 115.675 60.5143 111.914Z" fill="url(#paint17_radial_1_805)" stroke="#302112" stroke-width="0.708971" stroke-linecap="round" stroke-linejoin="round"/>
<path d="M54.4099 124.043L55.2913 123.196C56.0683 122.982 56.8544 122.693 57.3457 124.839C57.6826 126.631 58.1001 128.593 58.2198 129.926C58.5354 132.788 57.8979 133.057 57.7368 134.621C57.1441 137.339 56.1036 137.224 55.2416 138.238C53.501 138.871 53.13 137.999 53.0595 136.889C53.1183 132.792 51.4417 129.52 54.4099 124.043Z" fill="url(#paint18_radial_1_805)" stroke="#302112" stroke-width="0.708971" stroke-linecap="round" stroke-linejoin="round"/>
<path fill-rule="evenodd" clip-rule="evenodd" d="M48.8306 95.611C48.0481 93.207 47.1856 90.6028 45.5914 88.0935C43.9971 85.5841 44.2136 82.7073 43.2462 79.4636C43.0675 78.8643 42.7566 78.6297 42.3761 78.717C41.9952 78.8034 41.5443 79.2108 41.0854 79.8957C40.6265 80.5806 39.1195 82.0291 38.7062 83.2234C38.2934 84.4185 37.4189 85.4002 37.1755 87.0167C36.9321 88.6332 36.8049 90.4389 36.8549 92.3886C36.9054 94.3392 37.633 96.4385 38.1007 98.6342C45.7794 103.698 52.8513 107.711 48.8306 95.611Z" fill="white" stroke="black" stroke-width="1.58338"/>
<path fill-rule="evenodd" clip-rule="evenodd" d="M47.9161 96.9991C46.101 94.9353 44.5684 92.5216 43.477 89.6429C42.3857 86.7642 43.5085 84.7086 43.4605 80.7895C43.434 78.5847 42.7141 78.3434 41.8583 79.524C41.0024 80.7046 38.2398 82.0224 37.6704 85.5069C37.3856 87.2492 37.2064 89.2115 37.2022 91.3266C37.198 93.4416 37.9387 96.2908 38.3548 98.644C48.1514 123.735 53.7727 111.472 47.9161 96.9991Z" fill="url(#paint19_radial_1_805)" stroke="black" stroke-width="1.58338"/>
<defs>
<linearGradient id="paint0_linear_1_805" x1="223.27" y1="107.667" x2="229.99" y2="54.4872" gradientUnits="userSpaceOnUse">
<stop stop-color="#000079"/>
<stop offset="1" stop-color="#000079"/>
</linearGradient>
<radialGradient id="paint1_radial_1_805" cx="0" cy="0" r="1" gradientTransform="matrix(-0.000212764 34.5545 -71.1005 0 123.678 -150.929)" gradientUnits="userSpaceOnUse">
<stop stop-color="#FFB142"/>
<stop offset="0.8868" stop-color="#FFB141"/>
<stop offset="1" stop-color="#C87600"/>
</radialGradient>
<radialGradient id="paint2_radial_1_805" cx="0" cy="0" r="1" gradientTransform="matrix(0 -80.7958 68.3556 -0.000210154 76.1602 29.3449)" gradientUnits="userSpaceOnUse">
<stop stop-color="#A5A5A5"/>
<stop offset="1"/>
</radialGradient>
<linearGradient id="paint3_linear_1_805" x1="108.43" y1="-294.653" x2="112.5" y2="-294.653" gradientUnits="userSpaceOnUse">
<stop stop-color="#FFB142"/>
<stop offset="1" stop-color="#C87600"/>
</linearGradient>
<radialGradient id="paint4_radial_1_805" cx="0" cy="0" r="1" gradientUnits="userSpaceOnUse" gradientTransform="translate(126.673 125.409) rotate(142.477) scale(44.0567 36.9623)">
<stop stop-color="#A5A5A5"/>
<stop offset="1"/>
</radialGradient>
<linearGradient id="paint5_linear_1_805" x1="76.8902" y1="45.3172" x2="163.45" y2="48.3772" gradientUnits="userSpaceOnUse">
<stop stop-color="#0000AB"/>
<stop offset="1" stop-color="#00005C"/>
</linearGradient>
<linearGradient id="paint6_linear_1_805" x1="85.4506" y1="57.8916" x2="145.499" y2="70.3101" gradientUnits="userSpaceOnUse">
<stop/>
<stop offset="0.5"/>
<stop offset="1"/>
</linearGradient>
<linearGradient id="paint7_linear_1_805" x1="70.39" y1="67.8172" x2="136.93" y2="46.9972" gradientUnits="userSpaceOnUse">
<stop stop-color="#0000C5"/>
<stop offset="1" stop-color="#00006B"/>
</linearGradient>
<linearGradient id="paint8_linear_1_805" x1="102.18" y1="31.5072" x2="134.48" y2="40.1672" gradientUnits="userSpaceOnUse">
<stop stop-color="#FFE257"/>
<stop offset="1" stop-color="#D7B200"/>
</linearGradient>
<radialGradient id="paint9_radial_1_805" cx="0" cy="0" r="1" gradientTransform="matrix(35.1028 26.6228 22.3363 -29.4504 96.5606 141.773)" gradientUnits="userSpaceOnUse">
<stop stop-color="#A5A5A5"/>
<stop offset="1"/>
</radialGradient>
<radialGradient id="paint10_radial_1_805" cx="0" cy="0" r="1" gradientTransform="matrix(11.7796 -5.28465 5.22001 11.6357 23.231 46.429)" gradientUnits="userSpaceOnUse">
<stop stop-opacity="0.5415"/>
<stop offset="1" stop-opacity="0"/>
</radialGradient>
<linearGradient id="paint11_linear_1_805" x1="-37.8825" y1="66.4264" x2="-31.8251" y2="79.1968" gradientUnits="userSpaceOnUse">
<stop stop-color="#1F593A"/>
<stop offset="1" stop-color="#2FEA8F"/>
</linearGradient>
<radialGradient id="paint12_radial_1_805" cx="0" cy="0" r="1" gradientTransform="matrix(5.41295 6.06228 -6.90645 6.1665 17.3253 39.0869)" gradientUnits="userSpaceOnUse">
<stop stop-color="white" stop-opacity="0.8745"/>
<stop offset="1" stop-color="white" stop-opacity="0"/>
</radialGradient>
<radialGradient id="paint13_radial_1_805" cx="0" cy="0" r="1" gradientTransform="matrix(4.73975 -5.46142 4.6369 4.02417 28.2262 50.6671)" gradientUnits="userSpaceOnUse">
<stop stop-color="white"/>
<stop offset="1" stop-color="white" stop-opacity="0"/>
</radialGradient>
<radialGradient id="paint14_radial_1_805" cx="0" cy="0" r="1" gradientUnits="userSpaceOnUse" gradientTransform="translate(23.1486 46.0606) rotate(-25.3764) scale(17.8275)">
<stop stop-color="#4A3600"/>
<stop offset="0.6475" stop-color="#DECFA7"/>
<stop offset="1" stop-color="#392A00"/>
</radialGradient>
<radialGradient id="paint15_radial_1_805" cx="0" cy="0" r="1" gradientTransform="matrix(1.78829 -0.281952 1.17205 5.41653 32.9988 65.5226)" gradientUnits="userSpaceOnUse">
<stop stop-color="#231A00"/>
<stop offset="0.4544" stop-color="#756331"/>
<stop offset="1" stop-color="#2E2200"/>
</radialGradient>
<radialGradient id="paint16_radial_1_805" cx="0" cy="0" r="1" gradientTransform="matrix(2.03291 -1.2413 2.0669 3.38495 33.0233 78.2996)" gradientUnits="userSpaceOnUse">
<stop stop-color="#4A3600" stop-opacity="0.6576"/>
<stop offset="0.6475" stop-color="#DECFA7" stop-opacity="0.3831"/>
<stop offset="1" stop-color="#392A00" stop-opacity="0.3763"/>
</radialGradient>
<radialGradient id="paint17_radial_1_805" cx="0" cy="0" r="1" gradientTransform="matrix(2.49801 -0.58564 0.906604 3.86687 60.4481 116.494)" gradientUnits="userSpaceOnUse">
<stop stop-color="#4A3600" stop-opacity="0.6576"/>
<stop offset="0.6475" stop-color="#DECFA7" stop-opacity="0.3831"/>
<stop offset="1" stop-color="#392A00" stop-opacity="0.3763"/>
</radialGradient>
<radialGradient id="paint18_radial_1_805" cx="0" cy="0" r="1" gradientTransform="matrix(2.44669 0.208421 -0.639669 7.5077 55.3168 130.83)" gradientUnits="userSpaceOnUse">
<stop stop-color="#4A3600" stop-opacity="0.6576"/>
<stop offset="0.6475" stop-color="#DECFA7" stop-opacity="0.3831"/>
<stop offset="1" stop-color="#392A00" stop-opacity="0.3763"/>
</radialGradient>
<radialGradient id="paint19_radial_1_805" cx="0" cy="0" r="1" gradientTransform="matrix(35.1028 26.6229 22.3363 -29.4504 96.4258 141.839)" gradientUnits="userSpaceOnUse">
<stop stop-color="#A5A5A5"/>
<stop offset="1"/>
</radialGradient>
</defs>
</svg>
